# xmcd
#
# Track frame offsets: 
#        150
#        600
#        14065
#        25394
#        38119
#        51006
#        62688
#        73733
#        86162
#        97747
#        110320
#        123508
#        136795
#        149005
#        160077
#        173059
#        186779
#        199426
#        210628
#        225545
#
# Disc length: 3143 seconds
#
# Revision: 0
# Processed by: cddbd v1.5.2PL0 Copyright (c) Steve Scherf et al.
# Submitted via: ExactAudioCopy v0.95b4
#
DISCID=170c4514
DTITLE=Lightnin' Hopkins  - Mojo Hand [Disc 1]
DYEAR=1900
DGENRE=Blues
TTITLE0=Blues Is A Feeling
TTITLE1=Katie Mae Blues
TTITLE2=Play With Your Poodle
TTITLE3=Baby Please Don't Go
TTITLE4=Needed Time
TTITLE5=Short Haired Woman
TTITLE6=Mad With You
TTITLE7=Automobile
TTITLE8="T" Model Blues
TTITLE9=Lightnin' Boogie
TTITLE10=Black Cat Bone
TTITLE11=Give Me Central 209
TTITLE12=Coffee Blues
TTITLE13=What's The Matter Now
TTITLE14=I'm Wild About You Baby
TTITLE15=Policy Game
TTITLE16=Late In The Evening
TTITLE17=Lightnin' Jump
TTITLE18=Lightnin' Don't Feel Well
TTITLE19=Movin' On Out Boogie
EXTD=
EXTT0=
EXTT1=
EXTT2=
EXTT3=
EXTT4=
EXTT5=
EXTT6=
EXTT7=
EXTT8=
EXTT9=
EXTT10=
EXTT11=
EXTT12=
EXTT13=
EXTT14=
EXTT15=
EXTT16=
EXTT17=
EXTT18=
EXTT19=
PLAYORDER=
